<mxfile host="app.diagrams.net" modified="2020-11-16T11:59:46.525Z" agent="5.0 (Windows)" etag="VnG5jYDYp-nS61VbbasP" version="13.9.9" type="github">
  <diagram name="Page-1" id="9f46799a-70d6-7492-0946-bef42562c5a5">
    <mxGraphModel dx="1750" dy="1790" grid="1" gridSize="10" guides="1" tooltips="1" connect="1" arrows="1" fold="1" page="1" pageScale="1" pageWidth="4681" pageHeight="3300" background="#ffffff" math="0" shadow="0">
      <root>
        <mxCell id="0" />
        <mxCell id="1" parent="0" />
        <mxCell id="1jJlcAI5eUPAQHvlqqJp-1" value="" style="rounded=0;whiteSpace=wrap;html=1;strokeWidth=1;" vertex="1" parent="1">
          <mxGeometry x="900" y="740" width="220" height="60" as="geometry" />
        </mxCell>
        <mxCell id="1jJlcAI5eUPAQHvlqqJp-2" value="" style="rounded=0;whiteSpace=wrap;html=1;strokeWidth=1;" vertex="1" parent="1">
          <mxGeometry x="900" y="440" width="220" height="60" as="geometry" />
        </mxCell>
        <mxCell id="1jJlcAI5eUPAQHvlqqJp-3" value="" style="rounded=0;whiteSpace=wrap;html=1;strokeWidth=1;" vertex="1" parent="1">
          <mxGeometry x="900" y="540" width="220" height="60" as="geometry" />
        </mxCell>
        <mxCell id="1jJlcAI5eUPAQHvlqqJp-4" value="" style="rounded=0;whiteSpace=wrap;html=1;strokeWidth=1;" vertex="1" parent="1">
          <mxGeometry x="900" y="640" width="220" height="60" as="geometry" />
        </mxCell>
        <mxCell id="1jJlcAI5eUPAQHvlqqJp-5" value="" style="rounded=0;whiteSpace=wrap;html=1;strokeWidth=1;" vertex="1" parent="1">
          <mxGeometry x="900" y="330" width="220" height="60" as="geometry" />
        </mxCell>
        <mxCell id="1jJlcAI5eUPAQHvlqqJp-6" value="" style="rounded=0;whiteSpace=wrap;html=1;strokeWidth=1;" vertex="1" parent="1">
          <mxGeometry x="900" y="840" width="220" height="60" as="geometry" />
        </mxCell>
        <mxCell id="1jJlcAI5eUPAQHvlqqJp-7" value="" style="rounded=0;whiteSpace=wrap;html=1;strokeWidth=1;" vertex="1" parent="1">
          <mxGeometry x="900" y="940" width="220" height="60" as="geometry" />
        </mxCell>
        <mxCell id="1jJlcAI5eUPAQHvlqqJp-8" value="" style="rounded=0;whiteSpace=wrap;html=1;strokeWidth=1;" vertex="1" parent="1">
          <mxGeometry x="900" y="1040" width="220" height="60" as="geometry" />
        </mxCell>
        <mxCell id="1jJlcAI5eUPAQHvlqqJp-9" value="" style="rounded=0;whiteSpace=wrap;html=1;strokeWidth=1;" vertex="1" parent="1">
          <mxGeometry x="900" y="1140" width="220" height="60" as="geometry" />
        </mxCell>
        <mxCell id="1jJlcAI5eUPAQHvlqqJp-10" value="" style="rounded=0;whiteSpace=wrap;html=1;strokeWidth=1;" vertex="1" parent="1">
          <mxGeometry x="900" y="1240" width="220" height="60" as="geometry" />
        </mxCell>
        <mxCell id="1jJlcAI5eUPAQHvlqqJp-11" value="" style="shape=trapezoid;perimeter=trapezoidPerimeter;whiteSpace=wrap;html=1;fixedSize=1;strokeWidth=1;rotation=-180;size=30;" vertex="1" parent="1">
          <mxGeometry x="1230" y="1350" width="120" height="60" as="geometry" />
        </mxCell>
        <mxCell id="1jJlcAI5eUPAQHvlqqJp-12" value="" style="shape=trapezoid;perimeter=trapezoidPerimeter;whiteSpace=wrap;html=1;fixedSize=1;strokeWidth=1;rotation=-180;size=30;" vertex="1" parent="1">
          <mxGeometry x="1410" y="1350" width="120" height="60" as="geometry" />
        </mxCell>
        <mxCell id="1jJlcAI5eUPAQHvlqqJp-13" value="" style="rounded=0;whiteSpace=wrap;html=1;strokeWidth=1;" vertex="1" parent="1">
          <mxGeometry x="1990" y="130" width="410" height="310" as="geometry" />
        </mxCell>
        <mxCell id="1jJlcAI5eUPAQHvlqqJp-14" value="" style="rounded=0;whiteSpace=wrap;html=1;strokeWidth=1;" vertex="1" parent="1">
          <mxGeometry x="2000" y="660" width="400" height="300" as="geometry" />
        </mxCell>
        <mxCell id="1jJlcAI5eUPAQHvlqqJp-16" value="" style="endArrow=none;html=1;strokeWidth=1;" edge="1" parent="1">
          <mxGeometry width="50" height="50" relative="1" as="geometry">
            <mxPoint x="1620" y="1400" as="sourcePoint" />
            <mxPoint x="1670" y="1350" as="targetPoint" />
          </mxGeometry>
        </mxCell>
      </root>
    </mxGraphModel>
  </diagram>
</mxfile>
